<?xml version="1.0" encoding="utf-8"?>
<!-- Generator: Adobe Illustrator 26.5.1, SVG Export Plug-In . SVG Version: 6.00 Build 0)  -->
<svg version="1.1" id="Layer_1" xmlns="http://www.w3.org/2000/svg" xmlns:xlink="http://www.w3.org/1999/xlink" x="0px" y="0px"
	 viewBox="0 0 122.9 94.3" style="enable-background:new 0 0 122.9 94.3;" xml:space="preserve">
<style type="text/css">
	.st0{fill-rule:evenodd;clip-rule:evenodd;}
</style>
<g>
	<path class="st0" d="M12,27.7h9.4L44.6,1.9c2-2.3,5.6-2.5,7.9-0.4l0,0c2.3,2,2.5,5.6,0.5,7.9L36.5,27.7h50.3L70.4,9.3
		c-2.1-2.3-1.8-5.9,0.4-7.9l0,0c2.3-2,5.8-1.9,7.9,0.5l23.1,25.9h9h0.1h8.5c1.9,0,3.4,1.5,3.4,3.5V41c0,1.9-1.6,3.5-3.4,3.5h-7.3
		L108.3,92c-0.1,1.3-1.1,2.4-2.4,2.4h-89c-1.3,0-2.3-1.1-2.4-2.4l-3.8-47.5H3.5C1.6,44.5,0,42.9,0,41v-9.7c0-1.9,1.5-3.5,3.5-3.5
		L12,27.7L12,27.7L12,27.7z M77.7,46.2h10.9v31.5H77.7V46.2L77.7,46.2z M56.5,46.2h10.9v31.5h-11L56.5,46.2L56.5,46.2z M35.2,46.2
		h10.9v31.5H35.2V46.2L35.2,46.2z"/>
</g>
</svg>
