<?xml version="1.0" encoding="utf-8"?>
<!-- Generator: Adobe Illustrator 26.5.1, SVG Export Plug-In . SVG Version: 6.00 Build 0)  -->
<svg version="1.1"
	 id="Ebene_1" text-rendering="geometricPrecision" image-rendering="optimizeQuality" shape-rendering="geometricPrecision"
	 xmlns="http://www.w3.org/2000/svg" xmlns:xlink="http://www.w3.org/1999/xlink" x="0px" y="0px" viewBox="0 0 500 512.2"
	 style="enable-background:new 0 0 500 512.2;" xml:space="preserve">
<style type="text/css">
	.st0{fill-rule:evenodd;clip-rule:evenodd;}
</style>
<path class="st0" d="M65.5,0h315.7c6.9,0,12.6,5.7,12.6,12.6v157.1c-24-12.1-50.7-18.6-78.2-18.6c-23.5,0-45.9,4.7-66.3,13.2
	c-21.1,8.7-40.2,21.5-56.3,37.6c-45.1,45.1-61.7,111.8-43.5,172.5H60.9c-19,0-34.5,15.5-34.5,34.5s15.5,34.5,34.5,34.5h128.6
	l3.6,3.7c8.2,8.2,17.1,15.4,26.5,21.7H62.2C28,469,0,441,0,406.8V65.5C0,29.5,29.5,0,65.5,0z M319.5,185.1
	c38.1,0,74.6,15.1,101.6,42.1c37.3,37.3,51.1,92.2,36.1,142.6c-3.4,11.6-8.3,22.7-14.6,33l55.6,60.6c2.6,2.8,2.4,7.1-0.4,9.7
	l-40.9,37.3c-2.8,2.6-7.1,2.4-9.7-0.4L394,451.5c-22.5,13.7-48.2,20.9-74.6,20.9c-38.1,0-74.6-15.1-101.6-42.1
	c-13.3-13.4-23.9-29.2-31.2-46.6c-22.3-53.6-9.6-115.7,31.2-156.5c13.2-13.2,29-23.9,46.6-31.2C281.5,189,300.1,185.1,319.5,185.1
	L319.5,185.1z M400.5,247.7c-32.7-32.7-82.3-42.6-124.9-24.9c-76.4,31.6-94,130.2-37.2,187c32.8,32.7,82.2,42.6,124.9,24.9
	c42.9-17.8,70.8-59.5,70.8-105.9c0-15.5-3.1-30.4-8.6-43.8C419.6,270.9,411.1,258.3,400.5,247.7L400.5,247.7z M58.2,416.1h106.7
	l1.9,2.9c2.3,3.5,4.8,6.9,7.3,10.2H58.2c-2.8,0-5-2.2-5-5v-3C53.1,418.4,55.4,416.1,58.2,416.1L58.2,416.1z M58.2,390.2h93
	c1.9,4.4,3.9,8.8,6.2,13.1H58.2c-2.8,0-5-2.2-5-5v-3C53.1,392.4,55.4,390.2,58.2,390.2z M77.7,51.1h10.9c5.6,0,10.2,3.7,10.2,8.2
	v257.5c0,4.5-4.6,8.2-10.2,8.2H77.7c-5.6,0-10.1-3.7-10.1-8.2V59.3C67.5,54.8,72.1,51.1,77.7,51.1z"/>
</svg>
