<?xml version="1.0" encoding="utf-8"?>
<!-- Generator: Adobe Illustrator 26.5.1, SVG Export Plug-In . SVG Version: 6.00 Build 0)  -->
<svg version="1.1" id="Layer_1" xmlns="http://www.w3.org/2000/svg" xmlns:xlink="http://www.w3.org/1999/xlink" x="0px" y="0px"
	 viewBox="0 0 114.9 122.9" style="enable-background:new 0 0 114.9 122.9;" xml:space="preserve">
<style type="text/css">
	.st0{fill-rule:evenodd;clip-rule:evenodd;fill:#FFFFFF;}
</style>
<g>
	<path class="st0" d="M38.6,68.7c8.4,2.9,27.9,2.5,37.7,0c3.5,10.6,4.5,20.7,3.2,31.8c-3.6,30.3-39.9,28.4-44.1,2.6
		C33.5,91.4,34.4,80.5,38.6,68.7L38.6,68.7z M56.9,0c39.6-0.6,57.7,23.6,58,41.6C115.6,73,2.6,74,0.1,41.6
		C-1.3,23.7,17.3,0.7,56.9,0L56.9,0z M37.3,8.4c5.1-1.5,9.7-0.7,10.2,1.8c0.6,2.5-3.1,5.7-8.2,7.1c-5.1,1.5-9.7,0.7-10.2-1.8
		C28.5,13,32.2,9.8,37.3,8.4L37.3,8.4z M83.3,56.5c4.6-0.8,7.8-4.2,7.2-7.6c-0.6-3.4-4.7-5.5-9.2-4.7c-4.6,0.8-7.8,4.2-7.2,7.6
		C74.6,55.2,78.8,57.3,83.3,56.5L83.3,56.5z M33.9,44.2c4.5,0.8,7.8,4.2,7.2,7.6c-0.5,3.4-4.7,5.5-9.2,4.7s-7.8-4.2-7.2-7.6
		C25.2,45.5,29.3,43.5,33.9,44.2L33.9,44.2z M75.3,17c5.1,1.5,9.7,0.7,10.2-1.8c0.6-2.5-3.1-5.7-8.2-7.1c-5.1-1.5-9.7-0.7-10.2,1.8
		C66.6,12.4,70.2,15.6,75.3,17L75.3,17z M57.5,24.3c6,0,11,3.4,11,7.6s-4.9,7.6-11,7.6s-11-3.4-11-7.6S51.4,24.3,57.5,24.3
		L57.5,24.3z M105.4,33.8c-2.4-3.6-5.7-5.5-7.3-4.2c-1.6,1.2-1,5.1,1.4,8.7c2.4,3.6,5.7,5.5,7.3,4.2
		C108.4,41.3,107.8,37.4,105.4,33.8L105.4,33.8z M16.2,39.4c-2.9,4.3-6.8,6.6-8.8,5.1C5.5,43,6.2,38.3,9.1,34s6.8-6.6,8.8-5.1
		C19.8,30.4,19.1,35.1,16.2,39.4L16.2,39.4z"/>
</g>
</svg>
